<svg width="24" height="24" version="1.1" viewBox="0 0 24 24" xmlns="http://www.w3.org/2000/svg">
 <path d="m82.008 28.562c-8.7718-2.5289-11.656-13.438-5.2605-19.895 5.674-5.729 14.976-4.5068 18.977 2.4935 5.2418 9.1693-3.5565 20.331-13.717 17.402zm7.5545-2.0776c9.4002-4.4025 7.3246-18.481-2.9193-19.801-1.371-0.17668-1.371-0.17668-1.371 0.8669 0 1.0373 0.0071 1.0445 1.1642 1.2033 6.7122 0.92077 9.5216 9.3539 4.7178 14.162-4.8038 4.8078-13.23 1.9961-14.15-4.7217-0.1586-1.1581-0.16588-1.1651-1.2023-1.1651-1.0427 0-1.0427 0-0.86618 1.3721 0.87849 6.828 8.4148 10.993 14.627 8.0838zm-1.2794-3.3871c6.3589-3.2781 4.1239-12.721-3.0108-12.721-7.8357 0-9.3247 10.758-1.8297 13.219 1.0771 0.3537 3.7149 0.08236 4.8405-0.49792z" style="stroke-width:.26125"/>
 <path d="m8.2937 20.88c-0.78961-0.1702-0.65106-0.05093-4.3659-3.7586-3.5616-3.5548-3.5922-3.5889-3.7957-4.2308-0.64809-2.0442 1.2427-4.0643 3.3119-3.5384 0.75623 0.19223 0.79331 0.22218 3.0216 2.4405 1.9983 1.9894 2.1586 2.1291 2.4429 2.1291 0.27722 0 0.51168-0.22183 5.5727-5.2727 4.9789-4.9689 5.1434-5.1275 5.4844-5.2927 2.671-1.2935 5.2395 1.8706 3.4207 4.2138-0.64746 0.83414-12.828 12.861-13.218 13.05-0.64912 0.31585-1.2368 0.39724-1.875 0.25968z" style="stroke-width:.046875"/>
</svg>
