<svg width="24" height="24" version="1.1" viewBox="0 0 24 24" xmlns="http://www.w3.org/2000/svg">
 <path d="m8.7203 23.523c-8.7718-2.5289-11.656-13.438-5.2605-19.895 5.674-5.729 14.976-4.5068 18.977 2.4935 5.2418 9.1693-3.5565 20.331-13.717 17.402zm7.5545-2.0776c9.4002-4.4025 7.3246-18.481-2.9193-19.801-1.371-0.17668-1.371-0.17668-1.371 0.8669 0 1.0373 0.0071 1.0445 1.1642 1.2033 6.7122 0.92077 9.5216 9.3539 4.7178 14.162-4.8038 4.8078-13.23 1.9961-14.15-4.7217-0.1586-1.1581-0.16588-1.1651-1.2023-1.1651-1.0427 0-1.0427 0-0.86618 1.3721 0.87849 6.828 8.4148 10.993 14.627 8.0838zm-1.2794-3.3871c6.3589-3.2781 4.1239-12.721-3.0108-12.721-7.8357 0-9.3247 10.758-1.8297 13.219 1.0771 0.3537 3.7149 0.08236 4.8405-0.49792z" style="stroke-width:.26125"/>
</svg>
